    <svg
      width="200"
      height="200"
      xmlns="http://www.w3.org/2000/svg"
      viewBox="0 0 200 200"
    >
      <g
        stroke="currentColor"
        stroke-width="1.5"
        stroke-linecap="round"
        stroke-linejoin="round"
        transform="translate(58,58) scale(3.5)"
        fill="none"
      >
        <path d="M21.42 10.922a1 1 0 0 0-.019-1.838L12.83 5.18a2 2 0 0 0-1.66 0L2.6 9.08a1 1 0 0 0 0 1.832l8.57 3.908a2 2 0 0 0 1.66 0z" />
        <path d="M22 10v6" />
        <path d="M6 12.5V16a6 3 0 0 0 12 0v-3.5" />
      </g>

      <circle cx="100" cy="100" r="40" fill="none" stroke-width="6" />

      <g className="group-hover:animate-spin-slow origin-center">
        <circle cx="100" cy="40" r="8" fill="#e6007a" stroke="none" />
        <circle cx="130" cy="50" r="8"  fill="#000" stroke="none" />
        <circle cx="150" cy="70" r="8" fill="#e6007a" stroke="none" />
        <circle cx="160" cy="100" r="8"  fill="#000" stroke="none" />
        <circle cx="150" cy="130" r="8" fill="#e6007a" stroke="none" />
        <circle cx="130" cy="150" r="8" fill="#000" stroke="none" />
        <circle cx="100" cy="160" r="8" fill="#e6007a" stroke="none" />
        <circle cx="70" cy="150" r="8"  fill="#000" stroke="none" />
        <circle cx="50" cy="130" r="8" fill="#e6007a" stroke="none" />
        <circle cx="40" cy="100" r="8"  fill="#000" stroke="none" />
        <circle cx="50" cy="70" r="8" fill="#e6007a" stroke="none" />
        <circle cx="70" cy="50" r="8"  fill="#000" stroke="none" />
      </g>
    </svg>